ffmpeg started on 2016-12-01 at 16:08:32
Report written to "Output/x264/results/ffmpeg/old_town_cross_2160p50slow4500k.log"
Command line:
Tools/ffmpeg/ffmpeg -benchmark -y -i Input/y4m/old_town_cross_2160p50.y4m -c:v libx264 -preset slow -b:v 4500k -an Output/x264/encoded/old_town_cross_2160p50slow4500k.mkv
ffmpeg version N-82227-gdb23fde Copyright (c) 2000-2016 the FFmpeg developers
  built with gcc 5.4.0 (Ubuntu 5.4.0-6ubuntu1~16.04.2) 20160609
  configuration: --prefix=/home/jaroslav/ffmpeg_build --pkg-config-flags=--static --extra-cflags=-I/home/jaroslav/ffmpeg_build/include --extra-ldflags=-L/home/jaroslav/ffmpeg_build/lib --bindir=/home/jaroslav/bin --enable-gpl --enable-libass --enable-libfdk-aac --enable-libfreetype --enable-libmp3lame --enable-libopus --enable-libtheora --enable-libvorbis --enable-libvpx --enable-libx264 --enable-libx265 --enable-nvenc --enable-libmfx --enable-libxvid --enable-libgsm --enable-libopencore-amrnb --enable-version3 --enable-nonfree
  libavutil      55. 35.100 / 55. 35.100
  libavcodec     57. 66.101 / 57. 66.101
  libavformat    57. 57.100 / 57. 57.100
  libavdevice    57.  2.100 / 57.  2.100
  libavfilter     6. 66.100 /  6. 66.100
  libswscale      4.  3.100 /  4.  3.100
  libswresample   2.  4.100 /  2.  4.100
  libpostproc    54.  2.100 / 54.  2.100
Input #0, yuv4mpegpipe, from 'Input/y4m/old_town_cross_2160p50.y4m':
  Duration: 00:00:10.00, start: 0.000000, bitrate: 4976642 kb/s
    Stream #0:0: Video: rawvideo (I420 / 0x30323449), yuv420p(progressive), 3840x2160, SAR 1:1 DAR 16:9, 50 fps, 50 tbr, 50 tbn, 50 tbc
[libx264 @ 0x32ee120] using SAR=1/1
[libx264 @ 0x32ee120] using cpu capabilities: MMX2 SSE2Fast SSSE3 SSE4.2 AVX FMA3 AVX2 LZCNT BMI2
[libx264 @ 0x32ee120] profile High, level 5.2
[libx264 @ 0x32ee120] 264 - core 148 - H.264/MPEG-4 AVC codec - Copyleft 2003-2016 - http://www.videolan.org/x264.html - options: cabac=1 ref=5 deblock=1:0:0 analyse=0x3:0x113 me=hex subme=8 psy=1 psy_rd=1.00:0.00 mixed_ref=1 me_range=16 chroma_me=1 trellis=2 8x8dct=1 cqm=0 deadzone=21,11 fast_pskip=1 chroma_qp_offset=-2 threads=6 lookahead_threads=1 sliced_threads=0 nr=0 decimate=1 interlaced=0 bluray_compat=0 constrained_intra=0 bframes=3 b_pyramid=2 b_adapt=1 b_bias=0 direct=3 weightb=1 open_gop=0 weightp=2 keyint=250 keyint_min=25 scenecut=40 intra_refresh=0 rc_lookahead=50 rc=abr mbtree=1 bitrate=4500 ratetol=1.0 qcomp=0.60 qpmin=0 qpmax=69 qpstep=4 ip_ratio=1.40 aq=1:1.00
Output #0, matroska, to 'Output/x264/encoded/old_town_cross_2160p50slow4500k.mkv':
  Metadata:
    encoder         : Lavf57.57.100
    Stream #0:0: Video: h264 (libx264) (H264 / 0x34363248), yuv420p, 3840x2160 [SAR 1:1 DAR 16:9], q=-1--1, 4500 kb/s, 50 fps, 1k tbn, 50 tbc
    Metadata:
      encoder         : Lavc57.66.101 libx264
    Side data:
      cpb: bitrate max/min/avg: 0/0/4500000 buffer size: 0 vbv_delay: -1
Stream mapping:
  Stream #0:0 -> #0:0 (rawvideo (native) -> h264 (libx264))
Press [q] to stop, [?] for help
frame=   57 fps= 18 q=0.0 size=       0kB time=00:00:00.00 bitrate=N/A speed=   0x    frame=   63 fps= 17 q=41.0 size=       1kB time=00:00:00.00 bitrate=5872.0kbits/s speed=0.000273x    frame=   71 fps= 17 q=48.0 size=       1kB time=00:00:00.16 bitrate=  36.5kbits/s speed=0.0385x    frame=   78 fps= 16 q=43.0 size=       1kB time=00:00:00.30 bitrate=  19.5kbits/s speed=0.0628x    frame=   85 fps= 16 q=42.0 size=       1kB time=00:00:00.44 bitrate=  13.3kbits/s speed=0.0822x    frame=   92 fps= 16 q=41.0 size=       1kB time=00:00:00.58 bitrate=  10.1kbits/s speed=0.0989x    frame=  100 fps= 15 q=40.0 size=       1kB time=00:00:00.74 bitrate=   7.9kbits/s speed=0.114x    frame=  107 fps= 15 q=40.0 size=       1kB time=00:00:00.88 bitrate=   6.7kbits/s speed=0.123x    frame=  114 fps= 15 q=39.0 size=       1kB time=00:00:01.02 bitrate=   5.8kbits/s speed=0.131x    frame=  120 fps= 14 q=39.0 size=       1kB time=00:00:01.14 bitrate=   5.1kbits/s speed=0.136x    frame=  127 fps= 14 q=39.0 size=       1kB time=00:00:01.28 bitrate=   4.6kbits/s speed=0.143x    frame=  133 fps= 14 q=39.0 size=       1kB time=00:00:01.40 bitrate=   4.2kbits/s speed=0.147x    frame=  139 fps= 14 q=39.0 size=       1kB time=00:00:01.52 bitrate=   3.9kbits/s speed=0.151x    frame=  144 fps= 14 q=38.0 size=       1kB time=00:00:01.62 bitrate=   3.6kbits/s speed=0.152x    frame=  151 fps= 13 q=38.0 size=       1kB time=00:00:01.76 bitrate=   3.3kbits/s speed=0.156x    frame=  157 fps= 13 q=38.0 size=       1kB time=00:00:01.88 bitrate=   3.1kbits/s speed=0.159x    frame=  164 fps= 13 q=38.0 size=       1kB time=00:00:02.02 bitrate=   2.9kbits/s speed=0.162x    frame=  171 fps= 13 q=38.0 size=       1kB time=00:00:02.16 bitrate=   2.7kbits/s speed=0.166x    frame=  176 fps= 13 q=38.0 size=       1kB time=00:00:02.26 bitrate=   2.6kbits/s speed=0.165x    frame=  183 fps= 13 q=38.0 size=       1kB time=00:00:02.40 bitrate=   2.4kbits/s speed=0.168x    frame=  189 fps= 13 q=38.0 size=       1kB time=00:00:02.52 bitrate=   2.3kbits/s speed=0.17x    frame=  195 fps= 13 q=38.0 size=       1kB time=00:00:02.64 bitrate=   2.2kbits/s speed=0.17x    frame=  202 fps= 12 q=38.0 size=       1kB time=00:00:02.78 bitrate=   2.1kbits/s speed=0.172x    frame=  208 fps= 12 q=38.0 size=       1kB time=00:00:02.90 bitrate=   2.0kbits/s speed=0.173x    frame=  214 fps= 12 q=38.0 size=       1kB time=00:00:03.02 bitrate=   1.9kbits/s speed=0.174x    frame=  220 fps= 12 q=37.0 size=       1kB time=00:00:03.14 bitrate=   1.9kbits/s speed=0.176x    frame=  224 fps= 12 q=37.0 size=       1kB time=00:00:03.22 bitrate=   1.8kbits/s speed=0.176x    frame=  230 fps= 12 q=37.0 size=       1kB time=00:00:03.34 bitrate=   1.8kbits/s speed=0.177x    frame=  236 fps= 12 q=37.0 size=       1kB time=00:00:03.46 bitrate=   1.7kbits/s speed=0.178x    frame=  241 fps= 12 q=37.0 size=       1kB time=00:00:03.56 bitrate=   1.6kbits/s speed=0.178x    frame=  247 fps= 12 q=37.0 size=       1kB time=00:00:03.68 bitrate=   1.6kbits/s speed=0.18x    frame=  252 fps= 12 q=37.0 size=       1kB time=00:00:03.78 bitrate=   1.6kbits/s speed=0.18x    frame=  259 fps= 12 q=37.0 size=       1kB time=00:00:03.92 bitrate=   1.5kbits/s speed=0.18x    frame=  265 fps= 12 q=37.0 size=       1kB time=00:00:04.04 bitrate=   1.5kbits/s speed=0.181x    frame=  270 fps= 12 q=37.0 size=       1kB time=00:00:04.14 bitrate=   1.4kbits/s speed=0.182x    frame=  272 fps= 11 q=37.0 size=       1kB time=00:00:04.18 bitrate=   1.4kbits/s speed=0.175x    frame=  273 fps= 11 q=37.0 size=       1kB time=00:00:04.20 bitrate=   1.4kbits/s speed=0.17x    frame=  275 fps= 11 q=37.0 size=       1kB time=00:00:04.24 bitrate=   1.4kbits/s speed=0.165x    frame=  279 fps= 11 q=38.0 size=       1kB time=00:00:04.32 bitrate=   1.4kbits/s speed=0.165x    frame=  283 fps= 11 q=38.0 size=       1kB time=00:00:04.40 bitrate=   1.3kbits/s speed=0.165x    frame=  287 fps= 11 q=38.0 size=       1kB time=00:00:04.48 bitrate=   1.3kbits/s speed=0.165x    frame=  291 fps= 11 q=38.0 size=       1kB time=00:00:04.56 bitrate=   1.3kbits/s speed=0.165x    frame=  295 fps= 10 q=38.0 size=       1kB time=00:00:04.64 bitrate=   1.3kbits/s speed=0.165x    frame=  299 fps= 10 q=38.0 size=       1kB time=00:00:04.72 bitrate=   1.2kbits/s speed=0.164x    frame=  303 fps= 10 q=38.0 size=       1kB time=00:00:04.80 bitrate=   1.2kbits/s speed=0.164x    frame=  310 fps= 10 q=38.0 size=    2471kB time=00:00:04.94 bitrate=4097.6kbits/s speed=0.166x    frame=  313 fps= 10 q=38.0 size=    2471kB time=00:00:05.00 bitrate=4048.5kbits/s speed=0.165x    frame=  320 fps= 10 q=38.0 size=    2471kB time=00:00:05.14 bitrate=3938.2kbits/s speed=0.166x    frame=  327 fps= 10 q=38.0 size=    2471kB time=00:00:05.28 bitrate=3833.8kbits/s speed=0.167x    frame=  333 fps= 10 q=38.0 size=    2471kB time=00:00:05.40 bitrate=3748.6kbits/s speed=0.168x    frame=  338 fps= 10 q=38.0 size=    2471kB time=00:00:05.50 bitrate=3680.5kbits/s speed=0.168x    frame=  344 fps= 10 q=38.0 size=    2471kB time=00:00:05.62 bitrate=3601.9kbits/s speed=0.169x    frame=  351 fps= 10 q=38.0 size=    2471kB time=00:00:05.76 bitrate=3514.4kbits/s speed=0.17x    frame=  356 fps= 10 q=38.0 size=    2471kB time=00:00:05.86 bitrate=3454.4kbits/s speed=0.17x    frame=  361 fps= 10 q=38.0 size=    2471kB time=00:00:05.96 bitrate=3396.5kbits/s speed=0.171x    frame=  366 fps= 10 q=38.0 size=    2471kB time=00:00:06.06 bitrate=3340.4kbits/s speed=0.171x    frame=  372 fps= 10 q=38.0 size=    2471kB time=00:00:06.18 bitrate=3275.6kbits/s speed=0.171x    frame=  378 fps= 10 q=38.0 size=    2471kB time=00:00:06.30 bitrate=3213.2kbits/s speed=0.172x    frame=  384 fps= 10 q=38.0 size=    2471kB time=00:00:06.42 bitrate=3153.2kbits/s speed=0.173x    frame=  388 fps= 10 q=38.0 size=    2471kB time=00:00:06.50 bitrate=3114.4kbits/s speed=0.173x    frame=  394 fps= 10 q=38.0 size=    2471kB time=00:00:06.62 bitrate=3057.9kbits/s speed=0.173x    frame=  399 fps= 10 q=38.0 size=    2471kB time=00:00:06.72 bitrate=3012.4kbits/s speed=0.173x    frame=  405 fps= 10 q=38.0 size=    2471kB time=00:00:06.84 bitrate=2959.6kbits/s speed=0.174x    frame=  410 fps= 10 q=38.0 size=    2471kB time=00:00:06.94 bitrate=2916.9kbits/s speed=0.174x    frame=  416 fps= 10 q=38.0 size=    2471kB time=00:00:07.06 bitrate=2867.4kbits/s speed=0.174x    frame=  423 fps= 10 q=38.0 size=    2471kB time=00:00:07.20 bitrate=2811.6kbits/s speed=0.175x    frame=  429 fps= 10 q=38.0 size=    2471kB time=00:00:07.32 bitrate=2765.5kbits/s speed=0.175x    frame=  436 fps= 10 q=38.0 size=    2471kB time=00:00:07.46 bitrate=2713.6kbits/s speed=0.176x    frame=  443 fps= 10 q=38.0 size=    2471kB time=00:00:07.60 bitrate=2663.6kbits/s speed=0.177x    frame=  448 fps= 10 q=38.0 size=    2471kB time=00:00:07.70 bitrate=2629.1kbits/s speed=0.177x    frame=  453 fps= 10 q=38.0 size=    2471kB time=00:00:07.80 bitrate=2595.4kbits/s speed=0.176x    frame=  460 fps= 10 q=38.0 size=    2471kB time=00:00:07.94 bitrate=2549.6kbits/s speed=0.177x    frame=  467 fps= 10 q=38.0 size=    2471kB time=00:00:08.08 bitrate=2505.4kbits/s speed=0.178x    frame=  470 fps= 10 q=38.0 size=    2471kB time=00:00:08.14 bitrate=2487.0kbits/s speed=0.177x    frame=  477 fps= 10 q=38.0 size=    2471kB time=00:00:08.28 bitrate=2444.9kbits/s speed=0.177x    frame=  484 fps= 10 q=38.0 size=    2471kB time=00:00:08.42 bitrate=2404.3kbits/s speed=0.178x    frame=  489 fps= 10 q=38.0 size=    2471kB time=00:00:08.52 bitrate=2376.1kbits/s speed=0.178x    frame=  495 fps= 10 q=38.0 size=    2471kB time=00:00:08.64 bitrate=2343.1kbits/s speed=0.179x    frame=  500 fps= 10 q=38.0 size=    2471kB time=00:00:08.74 bitrate=2316.3kbits/s speed=0.178x    frame=  500 fps=9.2 q=-1.0 Lsize=    5487kB time=00:00:09.94 bitrate=4521.7kbits/s speed=0.182x    
video:5483kB audio:0kB subtitle:0kB other streams:0kB global headers:0kB muxing overhead: 0.079298%
bench: utime=190.704s
bench: maxrss=2227940kB
[libx264 @ 0x32ee120] frame I:3     Avg QP:34.57  size:173212
[libx264 @ 0x32ee120] frame P:183   Avg QP:36.16  size: 15213
[libx264 @ 0x32ee120] frame B:314   Avg QP:38.57  size:  7357
[libx264 @ 0x32ee120] consecutive B-frames: 16.0%  0.8%  0.0% 83.2%
[libx264 @ 0x32ee120] mb I  I16..4: 38.3% 52.8%  8.8%
[libx264 @ 0x32ee120] mb P  I16..4:  0.1%  0.0%  0.0%  P16..4: 17.4%  1.0%  2.5%  0.0%  0.0%    skip:78.9%
[libx264 @ 0x32ee120] mb B  I16..4:  0.0%  0.0%  0.0%  B16..8: 29.6%  0.1%  0.0%  direct: 0.0%  skip:70.4%  L0:44.0% L1:56.0% BI: 0.0%
[libx264 @ 0x32ee120] final ratefactor: 30.25
[libx264 @ 0x32ee120] 8x8 transform intra:50.9% inter:85.4%
[libx264 @ 0x32ee120] direct mvs  spatial:98.7% temporal:1.3%
[libx264 @ 0x32ee120] coded y,uvDC,uvAC intra: 44.0% 40.5% 15.4% inter: 0.9% 1.3% 0.0%
[libx264 @ 0x32ee120] i16 v,h,dc,p:  7% 17%  2% 75%
[libx264 @ 0x32ee120] i8 v,h,dc,ddl,ddr,vr,hd,vl,hu:  5%  7% 16% 11% 17% 10% 17%  6% 11%
[libx264 @ 0x32ee120] i4 v,h,dc,ddl,ddr,vr,hd,vl,hu:  3%  3%  4% 16% 20% 12% 20%  8% 15%
[libx264 @ 0x32ee120] i8c dc,h,v,p: 16% 63% 13%  7%
[libx264 @ 0x32ee120] Weighted P-Frames: Y:0.5% UV:0.0%
[libx264 @ 0x32ee120] ref P L0: 67.6% 23.3%  6.8%  1.1%  0.9%  0.3%
[libx264 @ 0x32ee120] ref B L0: 90.3%  7.9%  1.5%  0.3%
[libx264 @ 0x32ee120] ref B L1: 97.1%  2.9%
[libx264 @ 0x32ee120] kb/s:4490.89
